<svg width="83" height="77" viewBox="0 0 83 77" fill="none" xmlns="http://www.w3.org/2000/svg">
<path d="M77.2955 19.6062C74.7672 15.1761 71.3899 11.2882 67.357 8.16504C63.3241 5.04193 58.7147 2.74497 53.7929 1.40569L53.5067 1.32901C43.5158 -1.34806 32.8706 0.0534132 23.9129 5.22512C14.9553 10.3968 8.41893 18.9151 5.74186 28.9061L0.306685 49.1904C-0.311099 51.496 0.0123172 53.9526 1.20579 56.0198C2.39926 58.0869 4.36502 59.5953 6.67062 60.2131L12.4662 61.766C14.7718 62.3838 17.2284 62.0604 19.2955 60.8669C21.3627 59.6734 22.871 57.7077 23.4888 55.4021L27.3711 40.9132C27.9889 38.6076 27.6655 36.151 26.472 34.0839C25.2785 32.0167 23.3128 30.5084 21.0072 29.8906L12.4443 27.5962C15.2893 19.8703 20.9195 13.4869 28.2295 9.69927C35.5396 5.91162 44.0014 4.99328 51.9538 7.12455L52.1965 7.18957C60.107 9.34503 66.9272 14.3772 71.3204 21.2997C75.7135 28.2222 77.3629 36.5358 75.9452 44.6112L67.3714 42.3138C65.0658 41.6961 62.6092 42.0195 60.5421 43.2129C58.4749 44.4064 56.9665 46.3722 56.3488 48.6778L52.4665 63.1666C51.8487 65.4722 52.1721 67.9288 53.3656 69.996C54.5591 72.0631 56.5248 73.5715 58.8304 74.1893L64.626 75.7422C66.9316 76.36 69.3882 76.0366 71.4553 74.8431C73.5225 73.6496 75.0308 71.6839 75.6486 69.3782L81.0838 49.0939C82.423 44.1712 82.7778 39.0326 82.1277 33.9726C81.4777 28.9126 79.8355 24.0305 77.2955 19.6062ZM19.4542 35.6861C20.2228 35.892 20.878 36.3948 21.2759 37.0839C21.6737 37.7729 21.7815 38.5918 21.5756 39.3603L17.6933 53.8492C17.4874 54.6177 16.9846 55.273 16.2955 55.6708C15.6065 56.0686 14.7876 56.1764 14.0191 55.9705L8.22353 54.4176C7.455 54.2116 6.79974 53.7088 6.40192 53.0198C6.0041 52.3307 5.89629 51.5119 6.10222 50.7433L10.7609 33.3567L19.4542 35.6861ZM69.8531 67.8253C69.6472 68.5939 69.1444 69.2491 68.4553 69.647C67.7663 70.0448 66.9474 70.1526 66.1789 69.9467L60.3833 68.3937C59.6148 68.1878 58.9595 67.685 58.5617 66.996C58.1639 66.3069 58.0561 65.4881 58.262 64.7195L62.1443 50.2307C62.3502 49.4622 62.853 48.8069 63.5421 48.4091C64.2311 48.0113 65.05 47.9034 65.8185 48.1094L74.5118 50.4387L69.8531 67.8253Z" fill="white"/>
</svg>
