<svg width="78" height="78" viewBox="0 0 78 78" fill="none" xmlns="http://www.w3.org/2000/svg">
<path d="M22.6162 53.2287C26.3753 51.6336 29.3679 48.6409 30.9631 44.8818L34.8673 36.4003L38.7715 44.8818C40.4068 48.6456 43.3813 51.6681 47.1184 53.3634L55.6 57.2676L47.1184 61.0372C43.4096 62.7528 40.4117 65.7032 38.6369 69.3841L34.7327 78.0003L30.9631 69.3841C29.2799 65.6852 26.3151 62.7204 22.6162 61.0372L14 57.133L22.6162 53.2287Z" fill="white"/>
<path d="M49.0621 20.5033C51.8815 19.3069 54.126 17.0624 55.3223 14.2431L58.2505 7.88196L61.1786 14.2431C62.4051 17.066 64.636 19.3328 67.4388 20.6043L73.8 23.5325L67.4388 26.3596C64.6572 27.6464 62.4088 29.8592 61.0777 32.6198L58.1495 39.082L55.3223 32.6198C54.0599 29.8457 51.8363 27.622 49.0621 26.3596L42.6 23.4315L49.0621 20.5033Z" fill="white"/>
<path d="M11.4317 10.5479C13.778 9.49089 15.6571 7.61562 16.7163 5.27408L19.2 0.000244141L21.6309 5.27408C22.6901 7.61562 24.5691 9.49089 26.9155 10.5479L32.2 13.0266L26.9155 15.4526C24.5488 16.4799 22.6603 18.3645 21.6309 20.7264L19.1472 26.0002L16.7691 20.7264C15.71 18.3849 13.8309 16.5096 11.4846 15.4526L6.20001 12.9739L11.4317 10.5479Z" fill="white"/>
</svg>
